<?xml version="1.0" encoding="utf-8"?>
<!DOCTYPE svg PUBLIC "-//W3C//DTD SVG 1.0//EN" "http://www.w3.org/TR/2001/REC-SVG-20010904/DTD/svg10.dtd">
<svg version="1.0" id="Layer_1" xmlns="http://www.w3.org/2000/svg" xmlns:xlink="http://www.w3.org/1999/xlink" x="0px" y="0px"
	 width="334.547px" height="162.475px" viewBox="0 0 334.547 162.475" enable-background="new 0 0 334.547 162.475"
	 xml:space="preserve">
<path fill="#FFCE00" d="M199.102,68.303c0,0,26.569-46.506-5.903-54.886c-31.14-8.054-70.188,38.035-76.081,54.886H80.038
	c0,0,74.212-75.789,122.378-67.698c29.021,4.87,19.485,67.698,19.485,67.698H199.102z"/>
<path fill="#C3C6C8" d="M124.999,68.303c0,0,20.359-44.578,60.129-48.421c0,0-28.809,15.179-42.455,48.421H124.999z"/>
<path fill="#C3C6C8" d="M217.225,1.629c0,0,5.559,5.374,8.447,11.917c0,0,22.292,16.907,1.345,54.756h20.552
	C247.568,68.303,257.575-3.757,217.225,1.629"/>
<path fill="#2E2A25" d="M0,115.557v-57.71h5.358v23.229c2.243-2.756,4.754-4.816,7.531-6.182c2.778-1.364,5.824-2.047,9.138-2.047
	c5.887,0,10.914,2.137,15.082,6.41c4.167,4.273,6.251,9.459,6.251,15.557c0,6.021-2.104,11.162-6.309,15.422
	c-4.206,4.262-9.265,6.391-15.178,6.391c-3.389,0-6.461-0.727-9.213-2.18c-2.752-1.455-5.186-3.635-7.302-6.545v7.654H0z
	 M21.431,111.461c2.978,0,5.728-0.732,8.247-2.199c2.52-1.467,4.524-3.527,6.013-6.182c1.489-2.652,2.234-5.459,2.234-8.418
	c0-2.961-0.751-5.779-2.253-8.459c-1.502-2.678-3.518-4.764-6.052-6.256c-2.532-1.492-5.236-2.238-8.112-2.238
	c-2.928,0-5.709,0.746-8.343,2.238c-2.634,1.492-4.658,3.502-6.07,6.027c-1.413,2.525-2.119,5.371-2.119,8.533
	c0,4.822,1.584,8.854,4.753,12.094S16.798,111.461,21.431,111.461"/>
<path fill="#2E2A25" d="M94.602,73.919v41.638h-5.281v-7.156c-2.245,2.73-4.765,4.783-7.559,6.16
	c-2.793,1.379-5.848,2.068-9.165,2.068c-5.893,0-10.926-2.139-15.097-6.41c-4.171-4.273-6.257-9.473-6.257-15.596
	c0-5.994,2.105-11.123,6.314-15.385c4.21-4.26,9.274-6.39,15.194-6.39c3.418,0,6.511,0.727,9.28,2.181
	c2.767,1.455,5.197,3.635,7.29,6.545v-7.655H94.602z M73.19,78.014c-2.981,0-5.733,0.733-8.256,2.198
	c-2.523,1.468-4.53,3.524-6.021,6.175c-1.491,2.65-2.236,5.453-2.236,8.41c0,2.93,0.752,5.732,2.255,8.408s3.524,4.76,6.059,6.25
	s5.256,2.236,8.161,2.236c2.931,0,5.708-0.74,8.333-2.217c2.625-1.479,4.643-3.479,6.059-6.002c1.414-2.523,2.122-5.363,2.122-8.523
	c0-4.816-1.587-8.844-4.76-12.08S77.828,78.014,73.19,78.014"/>
<path fill="#2E2A25" d="M148.217,57.848v57.709h-5.281v-7.156c-2.245,2.73-4.765,4.783-7.559,6.16
	c-2.793,1.379-5.848,2.068-9.165,2.068c-5.893,0-10.926-2.139-15.097-6.41c-4.171-4.273-6.257-9.473-6.257-15.596
	c0-5.994,2.104-11.123,6.314-15.385c4.21-4.26,9.274-6.39,15.194-6.39c3.418,0,6.511,0.727,9.28,2.181
	c2.767,1.455,5.197,3.635,7.29,6.545V57.848H148.217z M126.805,78.014c-2.981,0-5.733,0.733-8.256,2.198
	c-2.523,1.468-4.53,3.524-6.021,6.175c-1.491,2.65-2.236,5.453-2.236,8.41c0,2.93,0.751,5.732,2.255,8.408
	c1.503,2.676,3.524,4.76,6.059,6.25s5.256,2.236,8.161,2.236c2.931,0,5.708-0.74,8.333-2.217c2.625-1.479,4.643-3.479,6.059-6.002
	c1.414-2.523,2.121-5.363,2.121-8.523c0-4.816-1.586-8.844-4.759-12.08S131.443,78.014,126.805,78.014"/>
<path fill="#2E2A25" d="M162.203,56.775c1.219,0,2.263,0.434,3.125,1.301c0.863,0.868,1.295,1.914,1.295,3.138
	c0,1.199-0.432,2.233-1.295,3.1c-0.862,0.867-1.906,1.301-3.125,1.301c-1.192,0-2.223-0.434-3.086-1.301s-1.295-1.901-1.295-3.1
	c0-1.224,0.432-2.27,1.295-3.138C159.98,57.209,161.011,56.775,162.203,56.775 M159.543,73.919h5.359v41.638h-5.359V73.919z"/>
<path fill="#2E2A25" d="M176.037,73.92h5.357v7.463c2.144-2.858,4.517-4.995,7.119-6.411c2.602-1.416,5.434-2.124,8.496-2.124
	c3.111,0,5.874,0.791,8.284,2.372c2.411,1.583,4.19,3.713,5.34,6.391c1.146,2.68,1.721,6.85,1.721,12.516v21.43h-5.357V95.696
	c0-4.797-0.198-7.998-0.597-9.605c-0.62-2.756-1.811-4.828-3.571-6.22c-1.761-1.39-4.058-2.086-6.89-2.086
	c-3.24,0-6.144,1.071-8.708,3.216c-2.564,2.143-4.255,4.797-5.071,7.961c-0.511,2.064-0.766,5.842-0.766,11.326v15.27h-5.357V73.92z
	"/>
<path fill="#2E2A25" d="M243.545,72.849c6.415,0,11.729,2.321,15.947,6.964c3.834,4.236,5.75,9.248,5.75,15.041
	c0,5.816-2.025,10.9-6.075,15.25c-4.052,4.35-9.26,6.525-15.622,6.525c-6.391,0-11.611-2.176-15.661-6.525
	c-4.051-4.35-6.077-9.434-6.077-15.25c0-5.766,1.917-10.766,5.751-15.002C231.774,75.183,237.104,72.849,243.545,72.849
	 M243.524,78.09c-4.454,0-8.282,1.646-11.481,4.938c-3.202,3.291-4.802,7.271-4.802,11.939c0,3.012,0.729,5.818,2.189,8.42
	c1.459,2.602,3.43,4.611,5.914,6.027s5.21,2.125,8.18,2.125c2.971,0,5.696-0.709,8.182-2.125c2.481-1.416,4.454-3.426,5.914-6.027
	c1.459-2.602,2.188-5.408,2.188-8.42c0-4.668-1.606-8.648-4.819-11.939C251.774,79.737,247.955,78.09,243.524,78.09"/>
<polygon fill="#2E2A25" points="279.822,58.459 285.18,58.459 285.18,73.919 293.677,73.919 293.677,78.55 285.18,78.55 
	285.18,115.557 279.822,115.557 279.822,78.55 272.513,78.55 272.513,73.919 279.822,73.919 "/>
<polygon fill="#2E2A25" points="306.381,58.459 311.738,58.459 311.738,73.919 320.235,73.919 320.235,78.55 311.738,78.55 
	311.738,115.557 306.381,115.557 306.381,78.55 299.071,78.55 299.071,73.919 306.381,73.919 "/>
<path fill="#2E2A25" d="M330.127,56.775c1.22,0,2.262,0.434,3.124,1.301c0.863,0.868,1.296,1.914,1.296,3.138
	c0,1.199-0.433,2.233-1.296,3.1c-0.862,0.867-1.904,1.301-3.124,1.301c-1.193,0-2.224-0.434-3.087-1.301
	c-0.862-0.867-1.295-1.901-1.295-3.1c0-1.224,0.433-2.27,1.295-3.138C327.903,57.209,328.934,56.775,330.127,56.775 M327.468,73.919
	h5.357v41.638h-5.357V73.919z"/>
<rect x="194.366" y="134.204" fill="#2E2A25" width="3.608" height="22.004"/>
<path fill="#7B7774" d="M219.708,138.118c-1.066-0.59-2.611-1.066-4.073-1.066c-2.837,0-3.707,1.545-3.707,2.67
	c0,1.432,1.039,2.639,4.017,4.381c3.68,2.162,5.422,4.018,5.422,6.545c0,3.707-3.034,5.9-7.079,5.9c-1.63,0-3.989-0.449-5.141-1.123
	l0.084-2.559c1.433,0.898,3.23,1.461,5.225,1.461c2.95,0,4.298-1.824,4.298-3.539c0-1.602-1.207-2.922-4.409-4.775
	c-3.737-2.219-5-3.934-5-6.207c0-2.529,1.909-4.975,6.235-4.975c1.32,0,2.979,0.254,4.214,0.816L219.708,138.118z"/>
<path fill="#7B7774" d="M226.167,137.471h-2.527v-3.174h2.527V137.471z M226.111,156.209h-2.416v-16.123h2.416V156.209z"/>
<path fill="#7B7774" d="M231.307,156.209h-2.416v-16.125h2.359v1.994c1.04-1.291,2.951-2.416,5.282-2.416
	c3.566,0,5.787,2.305,5.787,6.041v10.506h-2.416v-9.805c0-3.482-2.052-4.578-4.242-4.578c-1.854,0-4.354,1.404-4.354,4.297V156.209z
	"/>
<path fill="#7B7774" d="M257.345,155.928c-1.151,0.59-2.81,0.787-3.877,0.787c-5.141,0-9.102-3.877-9.102-8.568
	s3.961-8.568,9.102-8.568c1.012,0,2.642,0.225,3.877,0.871v2.303h-0.084c-1.349-0.898-2.866-1.066-3.793-1.066
	c-3.68,0-6.545,2.893-6.545,6.461s2.865,6.461,6.545,6.461c0.955,0,2.22-0.113,3.793-0.955h0.084V155.928z"/>
<path fill="#7B7774" d="M268.271,157.024c-5.395,0-9.103-3.99-9.103-8.877c0-4.803,3.54-8.877,8.596-8.877
	c4.692,0,8.513,3.793,8.513,8.568v0.506h-14.551c0.111,3.848,2.808,6.572,6.545,6.572c2.585,0,4.635-1.096,6.151-2.611l1.489,1.6
	C274.281,155.62,271.726,157.024,268.271,157.024 M261.921,146.377h11.688c-0.619-2.895-2.979-5-5.845-5
	C264.815,141.377,262.539,143.399,261.921,146.377"/>
<polygon fill="#7B7774" points="289.306,156.209 286.891,156.209 286.891,138.961 282.733,143.344 282.733,140.225 287.424,135.252 
	289.306,135.252 "/>
<path fill="#7B7774" d="M298.912,156.209h-2.978c2.642-3.314,4.943-6.293,6.488-8.877c-0.982,0.646-2.19,1.012-3.539,1.012
	c-3.848,0-6.91-3.006-6.91-6.77c0-3.85,3.202-6.996,7.389-6.996c3.988,0,7.415,2.668,7.415,7.023
	C306.777,146.012,302.648,151.293,298.912,156.209 M304.39,141.518c0-2.641-2.304-4.859-5.027-4.859
	c-2.754,0-4.974,2.219-4.974,4.859c0,2.668,2.22,4.83,4.974,4.83C302.086,146.348,304.39,144.186,304.39,141.518"/>
<polygon fill="#7B7774" points="315.173,156.209 312.758,156.209 312.758,138.961 308.601,143.344 308.601,140.225 313.291,135.252 
	315.173,135.252 "/>
<path fill="#7B7774" d="M332.701,145.028v1.461c0,6.855-3.034,10.395-7.164,10.395c-4.072,0-7.163-3.539-7.163-10.395v-1.461
	c0-6.938,3.091-10.449,7.163-10.449C329.695,134.579,332.701,138.09,332.701,145.028 M330.285,145.028
	c0-5.674-1.91-8.342-4.748-8.342c-2.725,0-4.747,2.668-4.747,8.342v1.461c0,5.646,2.022,8.287,4.747,8.287
	c2.811,0,4.748-2.641,4.748-8.287V145.028z"/>
<path fill="#2E2A25" d="M104.785,156.969c-6.545,0-11.63-5-11.63-11.18c0-6.152,5.085-11.125,11.63-11.125
	c3.062,0,5.955,1.18,7.922,2.951l-3.202,3.566c-1.237-1.236-2.922-1.939-4.72-1.939c-3.736,0-6.602,2.922-6.602,6.547
	c0,3.68,2.866,6.602,6.602,6.602c2.557,0,4.607-1.715,5.31-4.018h-5.169l1.657-4.016h8.82v1.402
	C115.402,152.053,110.739,156.969,104.785,156.969"/>
<path fill="#2E2A25" d="M121.719,156.295h-4.635V140.17h4.41v3.482c0.562-1.234,2.276-3.566,4.663-3.566h0.534v5.084
	c-0.197-0.084-0.618-0.141-0.899-0.141c-2.471,0-4.073,1.715-4.073,2.922V156.295z"/>
<path fill="#2E2A25" d="M146.354,148.233c0,4.943-4.045,8.85-9.496,8.85c-5.42,0-9.466-3.906-9.466-8.85s4.046-8.85,9.466-8.85
	C142.309,139.383,146.354,143.29,146.354,148.233 M132.252,148.233c0,2.727,1.966,4.859,4.606,4.859
	c2.669,0,4.636-2.162,4.636-4.859c0-2.695-1.967-4.859-4.636-4.859C134.218,143.374,132.252,145.538,132.252,148.233"/>
<path fill="#2E2A25" d="M159.048,154.329c-0.982,1.182-2.81,2.389-5.281,2.389c-3.316,0-5.759-2.277-5.759-5.984V140.17h4.635v9.158
	c0,2.389,1.348,3.287,3.034,3.287c1.488,0,3.146-1.125,3.146-3.006v-9.439h4.635v16.125h-4.41V154.329z"/>
<path fill="#2E2A25" d="M170.338,154.188v8.287h-4.635V140.17h4.382v2.277c1.432-1.742,3.566-2.811,6.179-2.811
	c4.467,0,7.866,3.68,7.866,8.512s-3.399,8.682-7.866,8.682C173.849,156.831,171.741,155.817,170.338,154.188 M174.775,152.811
	c2.584,0,4.494-2.051,4.494-4.551s-1.91-4.607-4.494-4.607c-2.585,0-4.579,2.107-4.579,4.58
	C170.196,150.733,172.19,152.811,174.775,152.811"/>
</svg>
